<?xml version="1.0" encoding="utf-8"?>
<!-- Generator: Adobe Illustrator 23.0.0, SVG Export Plug-In . SVG Version: 6.00 Build 0)  -->
<svg version="1.1" id="Layer_1" xmlns="http://www.w3.org/2000/svg" xmlns:xlink="http://www.w3.org/1999/xlink" x="0px" y="0px"
	 viewBox="0 0 507 507" style="enable-background:new 0 0 507 507;" xml:space="preserve">
<style type="text/css">
	.st0{fill:#FFCB5A;}
	.st1{fill:#E76E54;}
	.st2{fill:#FFFFFF;}
	.st3{fill:#DD523C;}
	.st4{fill:#FFFFFF;stroke:#E76E54;stroke-width:10;stroke-miterlimit:10;}
	.st5{fill:#77959E;}
	.st6{fill:#C59969;}
	.st7{fill:#BA8A5A;}
	.st8{fill:#FBA61F;}
</style>
<path class="st0" d="M491,253.4c0,119.2-96.6,215.9-215.9,215.9c-119.2,0-215.9-96.6-215.9-215.9c0-119.2,96.6-215.9,215.9-215.9
	C394.4,37.5,491,134.2,491,253.4z"/>
<path class="st1" d="M272.7,485.2c-81.5-0.8-155.1-43.4-196.3-112.5c-4.8-8.1-2-18.6,6.5-22.8c7.4-3.7,16.5-1.2,20.6,5.8
	c39.8,67.4,115.3,105.6,196.1,96.1c90.9-10.7,164-84.7,174.1-175.6c13.4-120.4-80.9-222.7-198.6-222.7c-28.2,0-55.5,5.8-81.1,17.1
	l-13-29.2c29.7-13.2,61.4-19.9,94.1-19.9c131.3,0,237.5,109.8,231.6,242.4C501.3,387.2,396,486.5,272.7,485.2z M75.3,253.4h-32
	c0-28.4,5-55.9,14.9-81.8c1.4-3.7,2.9-7.5,4.5-11.1L92,173.2c-1.4,3.2-2.7,6.4-4,9.7C79.6,205.2,75.3,228.9,75.3,253.4z
	 M105.9,147.1l-27.1-17c6.1-9.6,12.9-18.9,20.4-27.6l24.3,20.8C117,130.8,111.1,138.8,105.9,147.1z M144.2,102.3l-20.9-24.1
	c8.6-7.5,17.9-14.4,27.5-20.5l17.2,27C159.7,89.9,151.7,95.8,144.2,102.3z"/>
<g>
	<path class="st2" d="M347.1,269.4h-95.9V109.5h32v127.9h64V269.4z"/>
	<path class="st2" d="M379.1,237.4h32v32h-32V237.4z"/>
	<path class="st2" d="M251.2,365.3h32v32h-32V365.3z"/>
</g>
<path class="st3" d="M59.3,292L0,232.7l22.6-22.6l36.7,36.7l36.7-36.7l22.6,22.6L59.3,292z"/>
<path class="st4" d="M398.1,213.2L398.1,213.2c-57.3,0-103.7-46.4-103.7-103.7v0c0-57.3,46.4-103.7,103.7-103.7h0
	c57.3,0,103.7,46.4,103.7,103.7v0C501.8,166.8,455.4,213.2,398.1,213.2z"/>
<g>
	<path class="st5" d="M447.5,81.3c-8.7-4.2-16.2-4.1-22.9,0.1l-3.9-6.2c8.9-5.6,18.9-5.8,29.8-0.6c2,0.9,2.8,3.3,1.7,5.2
		C451.3,81.5,449.2,82.1,447.5,81.3z"/>
	<path class="st6" d="M432.9,64.2L425.3,82h-34.3l-7.6-17.7c-1.5-3.4-1.1-7.3,0.9-10.4c2.1-3.1,5.5-5,9.2-5h29.2
		c3.7,0,7.1,1.8,9.2,5C434,56.9,434.4,60.8,432.9,64.2z"/>
	<path class="st7" d="M429.5,72.1l-4.2,9.9h-34.3l-4.2-9.9c6.4-2.9,13.4-4.4,20.7-4.4h1C415.9,67.7,423,69.2,429.5,72.1z"/>
	<path class="st6" d="M456,129.8c0,23.7-17,36.8-47.8,36.8c-3.9,0-7.6-0.2-11-0.7c-23.8-2.8-36.8-15.4-36.8-36.1
		c0-12.6,4.7-26,12.1-36.8c0.1-0.1,0.1-0.2,0.2-0.2c7.9-11.3,21.1-17.7,34.8-17.7h1c14.5,0,28.1,7.1,36.1,19.1
		C451.6,104.7,456,117.6,456,129.8z"/>
	<path class="st7" d="M455.8,125.8c-1.6,21.5-18.3,33.4-47.6,33.4h-0.1c-6,0-10.9-4.9-10.9-10.9V104c0-6.1-4.9-11-11-11h-13.6
		c-6.7,9.8-11.2,21.7-12,33.3c-0.1,1.2-0.2,2.3-0.2,3.5c0,20.7,12.9,33.3,36.8,36.1c3.5,0.4,7.1,0.7,11,0.7
		c30.8,0,47.8-13.1,47.8-36.8C456,128.4,455.9,127.1,455.8,125.8z"/>
	<path class="st0" d="M382.5,166.5h-36.8c-4.1,0-7.4-3.3-7.4-7.4v-51.5c0-4.1,3.3-7.4,7.4-7.4h36.8c4.1,0,7.4,3.3,7.4,7.4v51.5
		C389.8,163.2,386.5,166.5,382.5,166.5z"/>
	<path class="st2" d="M408.2,111.4h11V104h-7.4v-7.4h-7.4v8c-4.3,1.5-7.4,5.6-7.4,10.4c0,6.1,4.9,11,11,11c2,0,3.7,1.6,3.7,3.7
		s-1.6,3.7-3.7,3.7h-11v7.4h7.4v7.4h7.4v-8c4.3-1.5,7.4-5.6,7.4-10.4c0-6.1-4.9-11-11-11c-2,0-3.7-1.6-3.7-3.7
		S406.2,111.4,408.2,111.4z"/>
	<g>
		<path class="st8" d="M338.3,115.1h51.5v7.4h-51.5V115.1z"/>
		<path class="st8" d="M338.3,133.4h51.5v7.4h-51.5V133.4z"/>
		<path class="st8" d="M338.3,148.1h51.5v7.4h-51.5V148.1z"/>
	</g>
	<path class="st2" d="M397.2,59.9h7.4v7.4h-7.4V59.9z"/>
	<path class="st2" d="M411.9,59.9h7.4v7.4h-7.4V59.9z"/>
</g>
</svg>
