<?xml version="1.0" encoding="utf-8"?>
<!-- Generator: Adobe Illustrator 23.0.0, SVG Export Plug-In . SVG Version: 6.00 Build 0)  -->
<svg version="1.1" id="Layer_1" xmlns="http://www.w3.org/2000/svg" xmlns:xlink="http://www.w3.org/1999/xlink" x="0px" y="0px"
	 viewBox="0 0 507 507" style="enable-background:new 0 0 507 507;" xml:space="preserve">
<style type="text/css">
	.st0{fill:#FFCB5A;}
	.st1{fill:#E76E54;}
	.st2{fill:#FFFFFF;}
	.st3{fill:#DD523C;}
	.st4{fill:#FFFFFF;stroke:#E76E54;stroke-width:10;stroke-miterlimit:10;}
	.st5{display:none;}
	.st6{display:inline;fill:#77959E;}
	.st7{display:inline;fill:#C59969;}
	.st8{display:inline;fill:#BA8A5A;}
	.st9{display:inline;fill:#FFCB5A;}
	.st10{display:inline;fill:#FFFFFF;}
	.st11{display:inline;}
	.st12{fill:#FBA61F;}
	.st13{display:inline;fill:#0E9347;}
	.st14{display:inline;fill:#0D8944;}
	.st15{display:inline;fill:#3BB54A;}
	.st16{fill:#0E9347;}
	.st17{display:inline;fill:#89C763;}
	.st18{display:inline;fill:#FFCA5D;}
	.st19{display:inline;fill:#F6B545;}
	.st20{display:inline;fill:#FFCB5B;}
	.st21{display:inline;fill:#FFE27A;}
	.st22{display:inline;fill:#F19920;}
	.st23{fill:#F19920;}
	.st24{fill:#E78825;}
	.st25{fill:#F6B545;}
	.st26{fill:#AAAAAA;}
	.st27{fill:#999999;}
	.st28{fill:#FFDF65;}
	.st29{fill:#FFCD2C;}
	.st30{fill:#F78819;}
	.st31{fill:#FFC89F;}
	.st32{fill:#F7B081;}
	.st33{fill:#E0E0E0;}
	.st34{fill:#C4C4C4;}
</style>
<path class="st0" d="M491,253.4c0,119.2-96.6,215.9-215.9,215.9c-119.2,0-215.9-96.6-215.9-215.9c0-119.2,96.6-215.9,215.9-215.9
	C394.4,37.5,491,134.2,491,253.4z"/>
<path class="st1" d="M272.7,485.2c-81.5-0.8-155.1-43.4-196.3-112.5c-4.8-8.1-2-18.6,6.5-22.8c7.4-3.7,16.5-1.2,20.6,5.8
	c39.8,67.4,115.3,105.6,196.1,96.1c90.9-10.7,164-84.7,174.1-175.6c13.4-120.4-80.9-222.7-198.6-222.7c-28.2,0-55.5,5.8-81.1,17.1
	l-13-29.2c29.7-13.2,61.4-19.9,94.1-19.9c131.3,0,237.5,109.8,231.6,242.4C501.3,387.2,396,486.5,272.7,485.2z M75.3,253.4h-32
	c0-28.4,5-55.9,14.9-81.8c1.4-3.7,2.9-7.5,4.5-11.1L92,173.2c-1.4,3.2-2.7,6.4-4,9.7C79.6,205.2,75.3,228.9,75.3,253.4z
	 M105.9,147.1l-27.1-17c6.1-9.6,12.9-18.9,20.4-27.6l24.3,20.8C117,130.8,111.1,138.8,105.9,147.1z M144.2,102.3l-20.9-24.1
	c8.6-7.5,17.9-14.4,27.5-20.5l17.2,27C159.7,89.9,151.7,95.8,144.2,102.3z"/>
<g>
	<path class="st2" d="M347.1,269.4h-95.9V109.5h32v127.9h64V269.4z"/>
	<path class="st2" d="M379.1,237.4h32v32h-32V237.4z"/>
	<path class="st2" d="M251.2,365.3h32v32h-32V365.3z"/>
</g>
<path class="st3" d="M59.3,292L0,232.7l22.6-22.6l36.7,36.7l36.7-36.7l22.6,22.6L59.3,292z"/>
<path class="st4" d="M398.1,213.2L398.1,213.2c-57.3,0-103.7-46.4-103.7-103.7v0c0-57.3,46.4-103.7,103.7-103.7h0
	c57.3,0,103.7,46.4,103.7,103.7v0C501.8,166.8,455.4,213.2,398.1,213.2z"/>
<g class="st5">
	<path class="st6" d="M447.5,81.3c-8.7-4.2-16.2-4.1-22.9,0.1l-3.9-6.2c8.9-5.6,18.9-5.8,29.8-0.6c2,0.9,2.8,3.3,1.7,5.2
		C451.3,81.5,449.2,82.1,447.5,81.3z"/>
	<path class="st7" d="M432.9,64.2L425.3,82h-34.3l-7.6-17.7c-1.5-3.4-1.1-7.3,0.9-10.4c2.1-3.1,5.5-5,9.2-5h29.2
		c3.7,0,7.1,1.8,9.2,5C434,56.9,434.4,60.8,432.9,64.2z"/>
	<path class="st8" d="M429.5,72.1l-4.2,9.9h-34.3l-4.2-9.9c6.4-2.9,13.4-4.4,20.7-4.4h1C415.9,67.7,423,69.2,429.5,72.1z"/>
	<path class="st7" d="M456,129.8c0,23.7-17,36.8-47.8,36.8c-3.9,0-7.6-0.2-11-0.7c-23.8-2.8-36.8-15.4-36.8-36.1
		c0-12.6,4.7-26,12.1-36.8c0.1-0.1,0.1-0.2,0.2-0.2c7.9-11.3,21.1-17.7,34.8-17.7h1c14.5,0,28.1,7.1,36.1,19.1
		C451.6,104.7,456,117.6,456,129.8z"/>
	<path class="st8" d="M455.8,125.8c-1.6,21.5-18.3,33.4-47.6,33.4h-0.1c-6,0-10.9-4.9-10.9-10.9V104c0-6.1-4.9-11-11-11h-13.6
		c-6.7,9.8-11.2,21.7-12,33.3c-0.1,1.2-0.2,2.3-0.2,3.5c0,20.7,12.9,33.3,36.8,36.1c3.5,0.4,7.1,0.7,11,0.7
		c30.8,0,47.8-13.1,47.8-36.8C456,128.4,455.9,127.1,455.8,125.8z"/>
	<path class="st9" d="M382.5,166.5h-36.8c-4.1,0-7.4-3.3-7.4-7.4v-51.5c0-4.1,3.3-7.4,7.4-7.4h36.8c4.1,0,7.4,3.3,7.4,7.4v51.5
		C389.8,163.2,386.5,166.5,382.5,166.5z"/>
	<path class="st10" d="M408.2,111.4h11V104h-7.4v-7.4h-7.4v8c-4.3,1.5-7.4,5.6-7.4,10.4c0,6.1,4.9,11,11,11c2,0,3.7,1.6,3.7,3.7
		s-1.6,3.7-3.7,3.7h-11v7.4h7.4v7.4h7.4v-8c4.3-1.5,7.4-5.6,7.4-10.4c0-6.1-4.9-11-11-11c-2,0-3.7-1.6-3.7-3.7
		S406.2,111.4,408.2,111.4z"/>
	<g class="st11">
		<path class="st12" d="M338.3,115.1h51.5v7.4h-51.5V115.1z"/>
		<path class="st12" d="M338.3,133.4h51.5v7.4h-51.5V133.4z"/>
		<path class="st12" d="M338.3,148.1h51.5v7.4h-51.5V148.1z"/>
	</g>
	<path class="st10" d="M397.2,59.9h7.4v7.4h-7.4V59.9z"/>
	<path class="st10" d="M411.9,59.9h7.4v7.4h-7.4V59.9z"/>
</g>
<g class="st5">
	<path class="st13" d="M457.8,135H340.6c-3.2,0-5.9-2.6-5.9-5.9V64.7c0-3.2,2.6-5.9,5.9-5.9h117.2c3.2,0,5.9,2.6,5.9,5.9v64.5
		C463.7,132.4,461,135,457.8,135z"/>
	<path class="st14" d="M443.2,111.6c-6.7,0-12.9,3.2-16.4,8.5c-2.9-1.5-6.2-2.6-10-2.6c-10.3,0-18.8,7.6-20.2,17.6h61.2
		c2.9,0,5.3-2.1,5.9-5C462.5,119.8,453.7,111.6,443.2,111.6z"/>
	<path class="st15" d="M446.1,129.1h-93.8c0-6.4-5.3-11.7-11.7-11.7v-41c6.4,0,11.7-5.3,11.7-11.7h93.8c0,6.4,5.3,11.7,11.7,11.7v41
		C451.4,117.4,446.1,122.7,446.1,129.1z"/>
	<g class="st11">
		<path class="st16" d="M443.2,111.6c-6.7,0-12.9,3.2-16.4,8.5c-2.9-1.5-6.2-2.6-10-2.6c-8.2,0-15.2,4.7-18.5,11.7h47.8
			c0-6.4,5-11.4,11.4-11.7C453.7,113.9,448.7,111.6,443.2,111.6z"/>
		<ellipse class="st16" cx="399.2" cy="96.9" rx="23.4" ry="26.4"/>
		<circle class="st16" cx="364" cy="96.9" r="5.9"/>
		<circle class="st16" cx="434.4" cy="96.9" r="5.9"/>
	</g>
	<path class="st17" d="M402.1,94h-5.9c-1.8,0-2.9-1.2-2.9-2.9c0-1.8,1.2-2.9,2.9-2.9h8.8c1.8,0,2.9-1.2,2.9-2.9
		c0-1.8-1.2-2.9-2.9-2.9h-2.9c0-1.8-1.2-2.9-2.9-2.9c-1.8,0-2.9,1.2-2.9,2.9c-5,0-8.8,3.8-8.8,8.8c0,5,3.8,8.8,8.8,8.8h5.9
		c1.8,0,2.9,1.2,2.9,2.9c0,1.8-1.2,2.9-2.9,2.9h-8.8c-1.8,0-2.9,1.2-2.9,2.9c0,1.8,1.2,2.9,2.9,2.9h2.9c0,1.8,1.2,2.9,2.9,2.9
		c1.8,0,2.9-1.2,2.9-2.9c5,0,8.8-3.8,8.8-8.8S407.1,94,402.1,94z"/>
	<circle class="st18" cx="410.9" cy="137.9" r="20.5"/>
	<circle class="st19" cx="437.3" cy="132.1" r="20.5"/>
	<path class="st20" d="M437.3,111.6c-11.4,0-20.5,9.1-20.5,20.5s9.1,20.5,20.5,20.5s20.5-9.1,20.5-20.5
		C457.8,120.7,448.7,111.6,437.3,111.6z M437.3,146.7c-8.2,0-14.7-6.4-14.7-14.7c0-8.2,6.4-14.7,14.7-14.7s14.7,6.4,14.7,14.7
		C451.9,140.3,445.5,146.7,437.3,146.7z"/>
	<path class="st19" d="M437.3,152.3L437.3,152.3c11.4,0.3,20.5-9.1,20.5-20.2h-0.3c-1.5,0-2.6,1.2-2.9,2.6
		c-0.6,4.1-2.6,7.9-5.6,10.5c-2.3,2.3-5.6,3.8-9.1,4.4C438.5,149.7,437.3,150.8,437.3,152.3z"/>
	<path class="st21" d="M437.3,111.9L437.3,111.9c-11.4-0.3-20.5,9.1-20.5,20.2h0.3c1.5,0,2.6-1.2,2.9-2.6c0.6-4.1,2.6-7.9,5.6-10.5
		c2.3-2.3,5.6-3.8,9.1-4.4C436.1,114.5,437.3,113.3,437.3,111.9z"/>
	<path class="st22" d="M424.7,134.1c0-8.2,6.4-14.7,14.7-14.7c3.5,0,6.7,1.2,9.4,3.5c-2.9-3.5-6.7-5.6-11.4-5.6
		c-8.2,0-14.7,6.4-14.7,14.7c0,4.7,2.1,8.5,5.3,11.1C425.9,140.9,424.7,137.6,424.7,134.1z"/>
	<path class="st20" d="M446.1,141.2c-0.3,0-0.6,0-0.9-0.3c-0.6-0.6-0.6-1.5,0-2.1c1.8-1.8,2.6-4.4,2.6-6.7c0-0.9,0.6-1.5,1.5-1.5
		s1.5,0.6,1.5,1.5c0,3.2-1.2,6.4-3.2,8.8C447,141.2,446.4,141.2,446.1,141.2z"/>
	<g class="st11">
		<path class="st23" d="M437.3,140.9c-1.8,0-2.9-1.2-2.9-2.9v-11.7c0-1.8,1.2-2.9,2.9-2.9s2.9,1.2,2.9,2.9v11.7
			C440.2,139.7,439.1,140.9,437.3,140.9z"/>
		<path class="st23" d="M448.1,149.4c-2.1-7.3-7.3-13.2-14.1-15.8c-1.2-6.7-5.6-12.6-11.1-16.1c-3.5,3.8-5.9,8.8-5.9,14.4
			c0,11.4,9.1,20.5,20.5,20.5C441.4,152.6,444.9,151.4,448.1,149.4z"/>
	</g>
	<g class="st11">
		<path class="st24" d="M427.9,143.2c-2.1-2.6-3.5-5.9-3.5-9.4c0-4.1,1.8-7.9,4.7-10.5c-0.6-0.9-1.2-1.5-1.8-2.1
			c-2.9,2.6-4.7,6.4-4.7,10.8C422.6,136.8,424.7,140.6,427.9,143.2z"/>
		<path class="st24" d="M434.4,133.8v4.1c0,1.8,1.2,2.9,2.9,2.9c1.8,0,2.9-1.2,2.9-2.9v-0.6C438.5,135.9,436.4,134.7,434.4,133.8z"
			/>
	</g>
	<path class="st19" d="M448.1,149.4c-0.6-2.1-1.2-3.8-2.3-5.6c-2.3,1.8-5.3,2.9-8.5,2.9c-8.2,0-14.7-6.4-14.7-14.7
		c0-4.4,1.8-8.2,4.7-10.8c-1.5-1.5-2.9-2.6-4.7-3.5c-3.5,3.8-5.9,8.8-5.9,14.4c0,11.4,9.1,20.5,20.5,20.5
		C441.4,152.6,444.9,151.4,448.1,149.4z"/>
	<path class="st22" d="M447.3,146.7c-2.1,1.5-4.7,2.3-7.3,2.9c-1.5,0.3-2.6,1.5-2.6,2.9l0,0c4.1,0,7.6-1.2,10.8-3.2
		C447.8,148.5,447.6,147.6,447.3,146.7z"/>
	<path class="st20" d="M422.6,117.7c-3.5,3.8-5.9,8.8-5.9,14.4h0.3c1.5,0,2.6-1.2,2.9-2.6c0.6-4.1,2.6-7.6,5.3-10.3
		C424.4,118.9,423.5,118.3,422.6,117.7z"/>
	<circle class="st19" cx="410.9" cy="137.9" r="20.5"/>
	<path class="st22" d="M408,152.6c0,2.1,0.3,3.8,0.9,5.9c0.6,0,1.5,0,2.1,0c11.4,0,20.5-9.1,20.5-20.5c0-2.1-0.3-3.8-0.9-5.9
		c-0.6,0-1.5,0-2.1,0C417.1,132.1,408,141.2,408,152.6z"/>
	<path class="st20" d="M410.9,117.4c-11.4,0-20.5,9.1-20.5,20.5s9.1,20.5,20.5,20.5c11.4,0,20.5-9.1,20.5-20.5
		S422.4,117.4,410.9,117.4z M410.9,152.6c-8.2,0-14.7-6.4-14.7-14.7c0-8.2,6.4-14.7,14.7-14.7s14.7,6.4,14.7,14.7
		C425.6,146.1,419.1,152.6,410.9,152.6z"/>
	<path class="st19" d="M410.9,158.2L410.9,158.2c11.4,0.3,20.5-9.1,20.5-20.2h-0.3c-1.5,0-2.6,1.2-2.9,2.6
		c-0.6,4.1-2.6,7.9-5.6,10.5c-2.3,2.3-5.6,3.8-9.1,4.4C412.1,155.5,410.9,156.7,410.9,158.2z"/>
	<path class="st21" d="M410.9,117.7L410.9,117.7c-11.4-0.3-20.5,9.1-20.5,20.2h0.3c1.5,0,2.6-1.2,2.9-2.6c0.6-4.1,2.6-7.9,5.6-10.5
		c2.3-2.3,5.6-3.8,9.1-4.4C409.7,120.4,410.9,119.2,410.9,117.7z"/>
	<path class="st22" d="M398.3,140c0-8.2,6.4-14.7,14.7-14.7c3.5,0,6.7,1.2,9.4,3.5c-2.9-3.5-6.7-5.6-11.4-5.6
		c-8.2,0-14.7,6.4-14.7,14.7c0,4.7,2.1,8.5,5.3,11.1C399.5,146.7,398.3,143.5,398.3,140z"/>
	<path class="st20" d="M419.7,147c-0.3,0-0.6,0-0.9-0.3c-0.6-0.6-0.6-1.5,0-2.1c1.8-1.8,2.6-4.4,2.6-6.7c0-0.9,0.6-1.5,1.5-1.5
		s1.5,0.6,1.5,1.5c0,3.2-1.2,6.4-3.2,8.8C420.6,147,420,147,419.7,147z"/>
	<path class="st22" d="M410.9,146.7c-1.8,0-2.9-1.2-2.9-2.9v-11.7c0-1.8,1.2-2.9,2.9-2.9c1.8,0,2.9,1.2,2.9,2.9v11.7
		C413.9,145.6,412.7,146.7,410.9,146.7z"/>
	<g class="st11">
		<path class="st25" d="M424.4,132.4c0.6,1.8,1.2,3.5,1.2,5.6c0,8.2-6.4,14.7-14.7,14.7c-0.9,0-2.1,0-2.9-0.3v0.3
			c0,2.1,0.3,3.8,0.9,5.9c0.6,0,1.5,0,2.1,0c11.4,0,20.5-9.1,20.5-20.5c0-2.1-0.3-3.8-0.9-5.9c-0.6,0-1.5,0-2.1,0
			C427,132.1,425.9,132.1,424.4,132.4z"/>
		<circle class="st25" cx="425.6" cy="155.5" r="20.5"/>
	</g>
	<path class="st20" d="M425.6,135c-11.4,0-20.5,9.1-20.5,20.5c0,11.4,9.1,20.5,20.5,20.5s20.5-9.1,20.5-20.5
		C446.1,144.1,437,135,425.6,135z M425.6,170.2c-8.2,0-14.7-6.4-14.7-14.7s6.4-14.7,14.7-14.7s14.7,6.4,14.7,14.7
		S433.8,170.2,425.6,170.2z"/>
	<path class="st19" d="M425.6,175.7L425.6,175.7c11.4,0.3,20.5-9.1,20.5-20.2h-0.3c-1.5,0-2.6,1.2-2.9,2.6
		c-0.6,4.1-2.6,7.9-5.6,10.5c-2.3,2.3-5.6,3.8-9.1,4.4C426.7,173.1,425.6,174.3,425.6,175.7z"/>
	<path class="st21" d="M425.6,135.3L425.6,135.3c-11.4-0.3-20.5,9.1-20.5,20.2h0.3c1.5,0,2.6-1.2,2.9-2.6c0.6-4.1,2.6-7.9,5.6-10.5
		c2.3-2.3,5.6-3.8,9.1-4.4C424.4,137.9,425.6,136.8,425.6,135.3z"/>
	<path class="st22" d="M413,157.6c0-8.2,6.4-14.7,14.7-14.7c3.5,0,6.7,1.2,9.4,3.5c-2.9-3.5-6.7-5.6-11.4-5.6
		c-8.2,0-14.7,6.4-14.7,14.7c0,4.7,2.1,8.5,5.3,11.1C414.1,164.3,413,161.1,413,157.6z"/>
	<path class="st20" d="M434.4,164.6c-0.3,0-0.6,0-0.9-0.3c-0.6-0.6-0.6-1.5,0-2.1c1.8-1.8,2.6-4.4,2.6-6.7c0-0.9,0.6-1.5,1.5-1.5
		s1.5,0.6,1.5,1.5c0,3.2-1.2,6.4-3.2,8.8C435.2,164.6,434.7,164.6,434.4,164.6z"/>
	<path class="st22" d="M425.6,164.3c-1.8,0-2.9-1.2-2.9-2.9v-11.7c0-1.8,1.2-2.9,2.9-2.9c1.8,0,2.9,1.2,2.9,2.9v11.7
		C428.5,163.1,427.3,164.3,425.6,164.3z"/>
</g>
<g>
	<path class="st26" d="M413.9,136.9h-60.5c-1,0-1.8,0.8-1.8,1.8v7.2c0,1,0.8,1.8,1.8,1.8h60.5c1,0,1.8-0.8,1.8-1.8v-7.2
		C415.6,137.7,414.9,136.9,413.9,136.9z"/>
	<path class="st27" d="M413.9,136.9h-6.4v10.7h6.4c1,0,1.8-0.8,1.8-1.8v-7.2C415.6,137.7,414.9,136.9,413.9,136.9z"/>
	<circle class="st28" cx="383.6" cy="106.9" r="24.7"/>
	<path class="st29" d="M383.6,82.2c-1.4,0-2.7,0.1-4,0.3c11.7,1.9,20.7,12.1,20.7,24.3s-9,22.4-20.7,24.3c1.3,0.2,2.6,0.3,4,0.3
		c13.6,0,24.7-11,24.7-24.7C408.3,93.3,397.2,82.2,383.6,82.2z"/>
	<path class="st30" d="M384,105.1c-1-0.1-1.7-0.4-2-0.9c-0.4-0.5-0.4-1.3-0.3-1.8c0.1-0.7,0.4-2.2,2.8-2c1.3,0.1,1.8,1.9,1.8,1.9
		c0.2,0.9,1.2,1.5,2.2,1.3c0.9-0.2,1.5-1.2,1.3-2.2c0-0.1-0.3-1.1-0.9-2.1c-0.8-1.3-2-2.1-3.3-2.4v-1.5c0-1-0.8-1.8-1.8-1.8
		c-1,0-1.8,0.8-1.8,1.8v1.7c-2.3,0.8-3.6,2.9-3.8,4.9c-0.1,1.6,0.2,3,1,4.1c0.7,1,2,2.2,4.6,2.4c2.9,0.2,2.8,1.7,2.7,2.3
		c0,0.4-0.3,2.6-2.8,2.4c-1.9-0.2-2.9-2.1-3-2.2c-0.4-0.9-1.5-1.3-2.4-0.8c-0.9,0.4-1.3,1.5-0.9,2.4c0.1,0.1,1.4,3,4.4,3.9v1.7
		c0,1,0.8,1.8,1.8,1.8s1.8-0.8,1.8-1.8v-1.5c2.7-0.6,4.3-3,4.5-5.5C390.2,108.5,388.7,105.5,384,105.1z"/>
	<path class="st31" d="M458.4,48.2c-0.5-0.3-1-0.4-1.6-0.3l-14.7,4.8l-23.9,5.4c-8,1.8-15.3,5.2-21.8,10.1l-19.3,14.9
		c2.1-0.6,4.3-0.9,6.5-0.9c5.1,0,9.9,1.6,13.8,4.3c1-0.5,2.1-0.9,3.2-1.3l6.1-1.9l-13.2,13.6c-2.4,2.4-2.5,6.3-0.1,8.8
		c1.2,1.3,2.9,2,4.6,2c1.2,0,2.5-0.4,3.5-1.1l17.9-12.1l6.2-1.3c8.5-1.7,15.9-7,20.2-14.6l12.1-3.8c0.7-0.2,1.2-0.9,1.2-1.7V49.6
		C459.1,49.1,458.8,48.5,458.4,48.2z"/>
	<g>
		<path class="st32" d="M457.9,66.6l-12.1,3.8c-4.3,7.5-11.6,12.8-20.2,14.6l-6.2,1.3l-17.9,12.1c-1.1,0.7-2.3,1.1-3.5,1.1
			c-1.7,0-3.3-0.7-4.6-2c-0.1-0.1-0.1-0.1-0.2-0.2c-2.1,2.4-2.1,6.1,0.2,8.4c1.2,1.3,2.9,2,4.6,2c1.2,0,2.5-0.4,3.5-1.1l17.9-12.1
			l6.2-1.3c8.5-1.7,15.9-7,20.2-14.6l12.1-3.8c0.7-0.2,1.2-0.9,1.2-1.7v-8.2C459.1,65.6,458.6,66.3,457.9,66.6z"/>
	</g>
	<path class="st33" d="M416.6,125.2h-65.9c-4.2,0-7.6,3.4-7.6,7.6c0,4.2,3.4,7.6,7.6,7.6h65.9c4.2,0,7.6-3.4,7.6-7.6
		C424.2,128.6,420.8,125.2,416.6,125.2z"/>
	<path class="st33" d="M415,144h-62.7c-7.6,0-13.8,6.1-13.8,13.6v9.4c0,1,0.8,1.7,1.8,1.7H427c1,0,1.8-0.8,1.8-1.7v-9.4
		C428.7,150.1,422.6,144,415,144z"/>
	<path class="st34" d="M416.6,125.2h-8.8c4.2,0,7.6,3.4,7.6,7.6c0,4.2-3.4,7.6-7.6,7.6h8.8c4.2,0,7.6-3.4,7.6-7.6
		C424.2,128.6,420.8,125.2,416.6,125.2z"/>
	<path class="st34" d="M415,144h-8.8c7.6,0,13.8,6.1,13.8,13.6v9.4c0,1-0.8,1.7-1.8,1.7h8.8c1,0,1.8-0.8,1.8-1.7v-9.4
		C428.7,150.1,422.6,144,415,144z"/>
	<path class="st32" d="M413.2,73.3c-10.6,2.2-19,6-23.8,9.6c2.9,0.7,5.7,1.9,8.1,3.6c1-0.5,2.1-0.9,3.2-1.3l6-1.9l2.7-1.6
		c2.3-1.4,4.2-3.4,5.7-5.7C415.9,74.7,414.8,73,413.2,73.3z"/>
</g>
</svg>
